<?xml version="1.0" encoding="UTF-8" standalone="no"?>
<!-- Created with Inkscape (http://www.inkscape.org/) -->

<svg
   xmlns:dc="http://purl.org/dc/elements/1.1/"
   xmlns:cc="http://creativecommons.org/ns#"
   xmlns:rdf="http://www.w3.org/1999/02/22-rdf-syntax-ns#"
   xmlns:svg="http://www.w3.org/2000/svg"
   xmlns="http://www.w3.org/2000/svg"
   xmlns:sodipodi="http://sodipodi.sourceforge.net/DTD/sodipodi-0.dtd"
   xmlns:inkscape="http://www.inkscape.org/namespaces/inkscape"
   sodipodi:docname="turtle-symbolic.svg"
   height="16"
   id="svg7384"
   inkscape:version="0.48.3.1 r9886"
   version="1.1"
   width="16">
  <metadata
     id="metadata90">
    <rdf:RDF>
      <cc:Work
         rdf:about="">
        <dc:format>image/svg+xml</dc:format>
        <dc:type
           rdf:resource="http://purl.org/dc/dcmitype/StillImage" />
        <dc:title>Gnome Symbolic Icon Theme</dc:title>
      </cc:Work>
    </rdf:RDF>
  </metadata>
  <sodipodi:namedview
     inkscape:bbox-paths="false"
     bordercolor="#666666"
     borderopacity="1"
     inkscape:current-layer="layer11"
     inkscape:cx="8.5731255"
     inkscape:cy="9.5020345"
     gridtolerance="10"
     inkscape:guide-bbox="true"
     guidetolerance="10"
     id="namedview88"
     inkscape:object-nodes="false"
     inkscape:object-paths="false"
     objecttolerance="10"
     pagecolor="#555753"
     inkscape:pageopacity="1"
     inkscape:pageshadow="2"
     showborder="false"
     showgrid="true"
     showguides="true"
     inkscape:snap-bbox="true"
     inkscape:snap-bbox-midpoints="false"
     inkscape:snap-global="true"
     inkscape:snap-grids="true"
     inkscape:snap-nodes="false"
     inkscape:snap-others="false"
     inkscape:snap-to-guides="true"
     inkscape:window-height="711"
     inkscape:window-maximized="0"
     inkscape:window-width="1404"
     inkscape:window-x="341"
     inkscape:window-y="58"
     inkscape:zoom="15.999999">
    <inkscape:grid
       empspacing="2"
       enabled="true"
       id="grid4866"
       originx="-41.999998px"
       originy="412px"
       snapvisiblegridlinesonly="true"
       spacingx="1px"
       spacingy="1px"
       type="xygrid"
       visible="true" />
  </sodipodi:namedview>
  <title
     id="title9167">Gnome Symbolic Icon Theme</title>
  <defs
     id="defs7386" />
  <g
     inkscape:groupmode="layer"
     id="layer9"
     inkscape:label="status"
     style="display:inline"
     transform="translate(-283.0002,-629)" />
  <g
     inkscape:groupmode="layer"
     id="layer10"
     inkscape:label="devices"
     transform="translate(-283.0002,-629)" />
  <g
     inkscape:groupmode="layer"
     id="layer11"
     inkscape:label="apps"
     transform="translate(-283.0002,-629)">
    <path
       style="fill:#bebebe;fill-opacity:1;stroke:none"
       d="m 294.04353,636.74093 c 1.16598,0.13339 1.48478,0.0902 1.88335,-0.33333 0.56128,-0.59633 0.54239,-0.70177 0.96022,-1.00567 0.41781,-0.3039 1.53195,-0.48831 1.84973,0.0677 0.31779,0.55614 0.39724,2.02594 -0.0397,2.304 -0.43695,0.27807 -3.42213,-0.11911 -4.018,0.23834 -0.59584,0.35752 -1.03282,0.95337 -1.19171,1.62867 -0.1589,0.67531 -0.0397,0.71503 0.51642,0.91366 0.55613,0.19862 1.07254,0.31779 1.03283,0.67529 -0.0397,0.35753 -0.51643,0.71503 -1.07256,0.75476 -0.55614,0.0396 -0.91365,0 -1.11225,-0.11911 -0.19863,-0.11911 -0.27808,-1.5095 -0.67533,-1.46978 -0.39722,0.0397 -4.95407,-0.15889 -5.23213,0 -0.27807,0.1589 -0.59587,0.85645 -0.59587,1.29341 0,0.43697 -1.71727,0.36715 -1.91588,0.1589 -0.36715,-0.15202 -0.0794,-1.05507 0.75474,-1.45231 0.83421,-0.39724 -0.757,-0.99309 -1.39257,-1.27116 -0.6356,-0.27806 -1.03282,-0.6753 -0.6356,-1.03281 0.39725,-0.35752 1.24508,-0.65486 1.24508,-0.65486 1.52408,-2.45879 2.58762,-4.01321 5.20292,-4.03809 2.75938,0.004 3.78548,3.0234 4.43629,3.34236 z"
       id="path3122"
       inkscape:connector-curvature="0"
       sodipodi:nodetypes="cszcccscccscsscsssccc" />
  </g>
  <g
     inkscape:groupmode="layer"
     id="layer13"
     inkscape:label="places"
     transform="translate(-283.0002,-629)" />
  <g
     inkscape:groupmode="layer"
     id="layer14"
     inkscape:label="mimetypes"
     transform="translate(-283.0002,-629)" />
  <g
     inkscape:groupmode="layer"
     id="layer15"
     inkscape:label="emblems"
     style="display:inline"
     transform="translate(-283.0002,-629)" />
  <g
     inkscape:groupmode="layer"
     id="g71291"
     inkscape:label="emotes"
     style="display:inline"
     transform="translate(-283.0002,-629)" />
  <g
     inkscape:groupmode="layer"
     id="g4953"
     inkscape:label="categories"
     style="display:inline"
     transform="translate(-283.0002,-629)" />
  <g
     inkscape:groupmode="layer"
     id="layer12"
     inkscape:label="actions"
     style="display:inline"
     transform="translate(-283.0002,-629)" />
</svg>
